<?xml version="1.0" standalone="no"?>
<!DOCTYPE svg PUBLIC "-//W3C//DTD SVG 20010904//EN"
 "http://www.w3.org/TR/2001/REC-SVG-20010904/DTD/svg10.dtd">
<svg version="1.0" xmlns="http://www.w3.org/2000/svg"
 width="606.000000pt" height="606.000000pt" viewBox="0 0 606.000000 606.000000"
 preserveAspectRatio="xMidYMid meet">
<metadata>
Created by potrace 1.11, written by Peter Selinger 2001-2013
</metadata>
<g transform="translate(0.000000,606.000000) scale(0.100000,-0.100000)"
fill="#000000" stroke="none">
<path d="M2917 6054 c-1 -1 -49 -4 -107 -8 -116 -7 -154 -12 -280 -32 -29 -5
-118 -22 -204 -40 -58 -11 -282 -80 -351 -107 -44 -17 -82 -32 -85 -32 -51
-12 -351 -166 -475 -245 -475 -302 -849 -716 -1098 -1216 -101 -202 -209 -504
-243 -677 -16 -86 -24 -125 -27 -142 -3 -11 -8 -45 -12 -75 -4 -30 -9 -64 -11
-74 -24 -130 -23 -684 1 -759 2 -7 6 -30 9 -52 15 -121 37 -222 95 -440 48
-179 188 -491 306 -687 54 -89 197 -294 233 -334 9 -11 44 -51 77 -89 437
-511 1088 -880 1755 -994 373 -64 774 -59 1130 14 14 3 35 7 47 9 13 3 73 18
135 35 952 255 1733 973 2061 1896 37 105 74 222 81 259 3 11 14 60 25 107 29
118 56 305 66 454 5 70 6 376 1 420 -5 46 -16 144 -22 200 -4 40 -42 236 -58
305 -68 282 -201 603 -350 845 -50 81 -143 221 -161 241 -5 7 -21 27 -35 44
-515 670 -1315 1103 -2155 1166 -76 6 -343 12 -348 8z m338 -259 c108 -9 120
-11 250 -31 250 -40 549 -142 802 -274 681 -356 1176 -963 1388 -1702 19 -66
37 -134 40 -151 3 -18 8 -39 10 -47 4 -14 7 -33 19 -107 24 -145 36 -289 37
-443 1 -97 -8 -275 -16 -320 -2 -14 -7 -45 -10 -70 -12 -97 -49 -271 -82 -385
-239 -826 -831 -1482 -1632 -1810 -182 -75 -457 -149 -630 -170 -30 -4 -62 -8
-72 -10 -136 -26 -513 -23 -714 6 -605 88 -1140 354 -1566 779 -252 250 -416
481 -563 792 -47 97 -100 225 -110 263 -1 6 -14 46 -28 90 -25 77 -56 193 -65
245 -2 14 -8 41 -13 60 -4 19 -12 60 -15 90 -4 30 -9 63 -11 73 -19 104 -25
460 -10 612 12 119 12 124 20 165 3 19 8 47 10 62 36 228 135 527 250 756 340
677 944 1190 1661 1412 86 27 194 55 245 65 17 3 88 17 110 21 8 2 42 6 75 10
33 3 63 8 66 10 3 1 54 6 115 10 60 3 110 7 111 9 6 4 253 -3 328 -10z"/>
<path d="M2910 5355 c-176 -56 -337 -218 -473 -476 -82 -155 -173 -397 -212
-567 -3 -9 -15 -64 -29 -122 -14 -58 -28 -121 -31 -140 -3 -19 -8 -46 -10 -60
-30 -147 -61 -426 -70 -628 -2 -46 -5 -85 -7 -87 -1 -1 -48 -5 -103 -9 -55 -4
-116 -8 -135 -11 -19 -2 -66 -6 -105 -10 -38 -3 -79 -8 -90 -10 -11 -2 -42 -7
-69 -10 -72 -9 -204 -34 -258 -50 -75 -22 -107 -43 -108 -71 0 -27 160 -82
290 -98 25 -4 56 -8 70 -10 78 -13 247 -31 405 -42 55 -3 102 -8 104 -10 2 -2
5 -32 7 -66 3 -85 13 -235 18 -278 3 -19 7 -60 10 -90 4 -30 8 -66 10 -80 3
-14 7 -47 11 -75 3 -27 8 -59 10 -70 3 -11 7 -31 9 -45 63 -361 180 -714 313
-944 196 -341 435 -488 678 -419 115 33 247 138 350 277 47 66 67 98 138 228
34 62 129 302 157 397 53 181 115 469 135 626 4 28 8 61 10 75 2 14 7 52 10
85 3 33 8 80 10 105 3 25 7 97 10 160 3 63 7 115 8 116 1 1 52 5 112 8 61 4
124 9 140 11 39 5 128 15 185 20 131 12 312 51 378 80 44 20 53 29 50 46 -2
13 -17 30 -34 39 -41 23 -211 62 -334 76 -30 3 -57 8 -60 9 -4 2 -51 7 -105
11 -55 3 -103 8 -106 10 -3 1 -55 6 -115 10 -60 3 -110 7 -111 8 -1 1 -5 55
-8 121 -3 66 -8 138 -10 160 -2 22 -7 69 -10 105 -3 36 -8 76 -10 90 -2 14 -7
47 -10 74 -5 42 -33 209 -50 297 -3 15 -19 80 -36 145 -16 66 -32 126 -34 135
-11 51 -82 247 -122 338 -143 329 -326 543 -521 609 -70 23 -190 27 -252 7z"/>
</g>
</svg>
